<?xml version="1.0" standalone="no"?>
<!DOCTYPE svg PUBLIC "-//W3C//DTD SVG 20010904//EN"
 "http://www.w3.org/TR/2001/REC-SVG-20010904/DTD/svg10.dtd">
<svg version="1.0" xmlns="http://www.w3.org/2000/svg"
 width="728.000000pt" height="728.000000pt" viewBox="0 0 728.000000 728.000000"
 preserveAspectRatio="xMidYMid meet">
<metadata>
Created by potrace 1.11, written by Peter Selinger 2001-2013
</metadata>
<g transform="translate(0.000000,728.000000) scale(0.100000,-0.100000)"
fill="#000000" stroke="none">
<path d="M3415 7224 c-1082 -71 -2061 -596 -2700 -1449 -372 -496 -588 -1032
-682 -1685 -25 -179 -25 -720 0 -899 61 -427 173 -792 355 -1153 169 -333 369
-612 637 -887 592 -608 1338 -973 2195 -1077 175 -22 617 -25 785 -6 985 111
1826 556 2451 1297 424 503 698 1133 791 1820 25 185 25 716 -1 895 -99 703
-344 1280 -772 1817 -110 137 -396 422 -539 535 -548 435 -1162 689 -1870 773
-126 15 -527 27 -650 19z m314 -636 c55 -169 65 -313 31 -455 -20 -84 -61
-177 -98 -223 l-20 -25 5 165 c6 183 -10 311 -49 402 -20 47 -20 51 -4 85 26
54 85 143 95 143 5 0 23 -42 40 -92z m1571 -620 c0 -82 -18 -110 -122 -193
-157 -125 -675 -467 -817 -540 l-34 -17 7 33 c4 19 10 54 13 77 5 37 13 49 52
78 104 77 887 623 894 623 4 1 7 -27 7 -61z m-2471 -135 c21 -25 23 -33 19
-107 -5 -87 -34 -165 -84 -231 -15 -20 -25 -37 -23 -38 2 -2 18 -7 34 -13 29
-10 30 -12 27 -64 -2 -30 -4 -56 -6 -57 -2 -2 -27 8 -57 22 -30 14 -63 25 -74
25 -11 0 -54 -24 -95 -54 -94 -67 -220 -140 -377 -218 -125 -62 -159 -69 -235
-53 -27 6 -19 13 116 85 166 89 239 132 344 203 l73 48 -40 29 c-52 38 -71 76
-71 142 1 137 128 264 304 303 77 18 115 12 145 -22z m881 -60 c1 -10 5 -99 9
-198 10 -204 24 -257 70 -273 38 -13 78 -4 96 21 19 27 19 122 1 242 l-14 90
40 63 c22 34 43 62 47 62 4 0 12 -15 19 -32 6 -18 30 -60 52 -93 21 -33 40
-63 40 -67 0 -3 -13 -9 -30 -13 l-30 -7 1 -146 c2 -165 -10 -212 -63 -257 -68
-57 -185 -55 -260 5 l-38 31 -42 -36 c-106 -90 -229 -66 -275 54 -26 67 -25
284 1 361 23 65 42 97 68 111 18 10 18 4 17 -143 -1 -91 3 -164 9 -180 15 -36
53 -60 96 -60 43 0 52 5 73 45 14 26 18 64 20 196 l2 164 38 39 c41 42 53 47
53 21z m1564 -227 c42 -239 93 -423 143 -517 13 -25 57 -75 96 -111 40 -36 88
-91 107 -123 32 -54 35 -66 38 -154 4 -87 1 -106 -27 -189 -17 -52 -38 -105
-46 -120 -14 -25 -14 -21 -9 53 7 95 -12 196 -51 280 -25 53 -138 186 -148
175 -2 -3 11 -166 29 -363 47 -514 58 -729 58 -1102 1 -487 -27 -661 -140
-892 -70 -142 -72 -139 -56 75 9 114 15 374 15 667 2 421 -1 513 -20 745 -38
438 -102 926 -184 1383 -17 93 -29 170 -27 170 2 1 45 42 96 91 51 49 94 87
96 85 3 -2 16 -71 30 -153z m-1524 -743 c0 -16 9 -140 20 -278 11 -137 29
-401 40 -585 47 -781 75 -993 154 -1165 58 -125 139 -185 279 -207 156 -24
324 21 414 112 96 95 129 221 120 445 -8 196 -39 338 -185 865 -75 269 -98
384 -83 422 24 62 192 398 199 398 4 0 13 -37 20 -83 19 -132 47 -200 140
-337 97 -142 132 -213 162 -328 24 -95 60 -319 60 -376 l0 -40 -31 30 c-44 41
-68 94 -85 182 -18 100 -70 203 -138 277 l-54 60 14 -70 c44 -210 136 -728
151 -845 24 -195 24 -546 0 -659 -64 -298 -188 -443 -426 -500 -131 -31 -208
-36 -293 -17 -169 38 -289 150 -451 422 l-29 48 -23 -58 c-37 -92 -85 -165
-156 -238 -114 -117 -264 -169 -443 -153 -187 16 -355 85 -460 188 -77 76
-117 145 -152 262 -22 77 -27 114 -31 255 -7 215 10 347 92 735 90 426 98 500
59 576 -36 72 -141 43 -213 -57 -48 -67 -130 -225 -196 -379 -157 -363 -272
-533 -401 -592 -46 -21 -67 -25 -122 -21 -173 10 -308 143 -359 353 -20 86
-23 304 -4 419 35 217 106 389 147 355 18 -15 18 -50 -2 -212 -19 -156 -15
-308 12 -382 37 -105 155 -181 242 -156 114 34 248 202 481 606 255 442 391
579 515 520 80 -38 113 -159 96 -348 -10 -116 -25 -207 -75 -467 -60 -312 -79
-462 -79 -625 -1 -166 11 -236 54 -331 72 -159 237 -236 473 -220 232 16 331
87 381 271 25 93 32 416 17 740 -6 132 -14 421 -18 641 l-6 402 22 28 c36 47
132 144 142 144 5 0 9 -12 9 -27z m525 -3363 c0 -21 -5 -25 -33 -27 -61 -3
-192 -100 -283 -210 -68 -82 -64 -97 13 -43 24 17 54 38 68 48 14 9 27 19 30
22 3 3 41 35 84 70 43 36 106 89 139 118 61 53 82 60 100 31 15 -23 1 -63 -33
-97 -16 -17 -30 -34 -30 -39 0 -5 -21 -36 -47 -69 -27 -33 -53 -69 -60 -80
-33 -52 -83 -146 -83 -154 0 -6 -4 -10 -9 -10 -15 0 -53 -127 -49 -167 2 -32
0 -38 -17 -41 -31 -4 -65 33 -65 71 0 35 100 247 130 277 9 9 95 123 104 140
6 8 -14 -5 -43 -30 -28 -25 -64 -54 -79 -65 -15 -11 -46 -34 -69 -52 -23 -18
-48 -33 -56 -33 -8 0 -17 -6 -20 -14 -9 -22 -44 -25 -77 -5 -62 38 -53 75 43
172 100 102 192 168 282 204 43 17 60 12 60 -17z m494 16 c19 -23 3 -44 -32
-43 -36 1 -136 -57 -178 -104 -14 -16 -30 -29 -35 -30 -12 -1 -114 -125 -114
-138 0 -16 6 -14 53 16 50 31 105 73 168 128 133 115 165 142 193 163 38 28
42 28 62 -3 15 -23 15 -27 -2 -53 -28 -43 -85 -120 -121 -164 -18 -22 -33 -45
-33 -51 0 -6 -7 -17 -16 -26 -23 -24 -101 -167 -124 -228 -16 -43 -18 -62 -11
-89 8 -28 6 -34 -10 -39 -23 -8 -55 9 -69 36 -15 28 -4 70 43 164 43 85 52 99
135 213 30 40 52 75 50 77 -2 3 -31 -21 -64 -51 -32 -31 -78 -67 -101 -80 -22
-14 -44 -31 -47 -39 -3 -8 -15 -15 -26 -15 -11 0 -23 -6 -26 -14 -19 -48 -114
-7 -114 50 0 71 225 273 358 320 47 17 47 17 61 0z m-1727 -53 c22 -20 23 -36
3 -53 -8 -7 -33 -44 -55 -84 -22 -39 -45 -78 -50 -86 -41 -66 -120 -285 -120
-333 0 -40 -12 -59 -32 -52 -38 15 -50 113 -22 181 43 105 91 205 126 263 33
55 37 66 23 73 -8 5 -15 15 -15 22 0 15 91 81 119 85 3 1 13 -6 23 -16z m398
-483 c0 -26 -35 -48 -68 -44 -15 2 -57 5 -95 5 -127 3 -131 50 -4 59 115 8
167 2 167 -20z"/>
<path d="M2664 5750 c-77 -17 -174 -107 -174 -163 0 -50 68 -105 115 -93 28 7
109 102 138 163 19 39 19 43 4 66 -19 29 -41 36 -83 27z"/>
</g>
</svg>
